<svg width="29" height="28" viewBox="0 0 29 28" fill="none" xmlns="http://www.w3.org/2000/svg">
<path d="M26.1578 27.397L17.005 18.5837C16.1878 19.2132 15.248 19.7116 14.1856 20.0788C13.1233 20.446 11.9928 20.6297 10.7942 20.6297C7.82499 20.6297 5.31232 19.6397 3.25621 17.6599C1.19901 15.679 0.17041 13.259 0.17041 10.3999C0.17041 7.54087 1.19901 5.12088 3.25621 3.13999C5.31232 1.16015 7.82499 0.170227 10.7942 0.170227C13.7634 0.170227 16.2766 1.16015 18.3338 3.13999C20.3899 5.12088 21.418 7.54087 21.418 10.3999C21.418 11.5541 21.2273 12.6426 20.8459 13.6656C20.4646 14.6886 19.947 15.5935 19.2932 16.3804L28.4869 25.233C28.7865 25.5216 28.9364 25.8757 28.9364 26.2953C28.9364 26.715 28.7729 27.0822 28.446 27.397C28.1464 27.6855 27.765 27.8298 27.3019 27.8298C26.8388 27.8298 26.4575 27.6855 26.1578 27.397ZM10.7942 17.4821C12.8372 17.4821 14.5741 16.7938 16.0048 15.4172C17.4343 14.0396 18.1491 12.3672 18.1491 10.3999C18.1491 8.43269 17.4343 6.76026 16.0048 5.38266C14.5741 4.00611 12.8372 3.31783 10.7942 3.31783C8.75116 3.31783 7.01431 4.00611 5.58364 5.38266C4.15406 6.76026 3.43927 8.43269 3.43927 10.3999C3.43927 12.3672 4.15406 14.0396 5.58364 15.4172C7.01431 16.7938 8.75116 17.4821 10.7942 17.4821Z" fill="white"/>
</svg>
