<svg width="70" height="70" viewBox="0 0 70 70" fill="none" xmlns="http://www.w3.org/2000/svg">
<g clip-path="url(#clip0_409_29)">
<path d="M53.5938 0H16.4062C7.34533 0 0 7.34533 0 16.4062V53.5938C0 62.6547 7.34533 70 16.4062 70H53.5938C62.6547 70 70 62.6547 70 53.5938V16.4062C70 7.34533 62.6547 0 53.5938 0Z" fill="white"/>
<path d="M53.5938 0H16.4062C7.34533 0 0 7.34533 0 16.4062V53.5938C0 62.6547 7.34533 70 16.4062 70H53.5938C62.6547 70 70 62.6547 70 53.5938V16.4062C70 7.34533 62.6547 0 53.5938 0Z" fill="#1D9BF0"/>
<path d="M54.5705 24.9952C54.6005 25.4291 54.6005 25.8631 54.6005 26.3011C54.6005 39.644 44.4429 55.0326 25.8691 55.0326V55.0244C20.3821 55.0323 15.0087 53.4608 10.3906 50.4976C11.1885 50.5936 11.9902 50.6414 12.7941 50.6433C17.3419 50.6469 21.7587 49.1216 25.3351 46.3124C23.228 46.2725 21.186 45.5752 19.4946 44.3179C17.8032 43.0607 16.5469 41.3063 15.9015 39.3001C17.4144 39.5918 18.974 39.5323 20.4602 39.1262C15.7495 38.1743 12.3602 34.0353 12.3602 29.2283V29.1003C13.7645 29.8825 15.3362 30.3159 16.943 30.3641C12.5062 27.3987 11.1385 21.496 13.8176 16.8809C16.3527 20.0006 19.5158 22.552 23.1012 24.3696C26.6867 26.1871 30.6144 27.2301 34.6292 27.4307C34.2289 25.7076 34.288 23.9096 34.8007 22.2165C35.3133 20.5235 36.2615 18.9946 37.5504 17.783C41.6175 13.9598 48.014 14.1558 51.8372 18.2208C54.0985 17.7743 56.2671 16.9453 58.2496 15.7694C57.4957 18.1075 55.9182 20.0921 53.8106 21.3541C55.8123 21.1183 57.7672 20.5824 59.6094 19.7646C58.2542 21.794 56.5479 23.5652 54.5705 24.9952Z" fill="white"/>
</g>
<defs>
<clipPath id="clip0_409_29">
<rect width="70" height="70" fill="white"/>
</clipPath>
</defs>
</svg>
